<?xml version="1.0" encoding="utf-8"?>
<!-- Generator: Adobe Illustrator 26.1.0, SVG Export Plug-In . SVG Version: 6.00 Build 0)  -->
<svg version="1.1" id="Layer_1" xmlns="http://www.w3.org/2000/svg" xmlns:xlink="http://www.w3.org/1999/xlink" x="0px" y="0px"
	 viewBox="0 0 2500 2500" style="enable-background:new 0 0 2500 2500;" xml:space="preserve">
<style type="text/css">
	.st0{fill:#FFFFFF;stroke:#000000;stroke-miterlimit:10;}
</style>
<g>
	<path class="st0" d="M1044.13,1043c-9.33,15.81-19.37,31.25-27.76,47.54c-6.29,12.23-11.04,25.36-15.42,38.45
		c-5.89,17.57-10.1,35.63-11.25,54.22c-1.04,16.72-2.64,33.48-2.26,50.18c0.33,14.7,3.01,29.34,4.73,44
		c3.02,25.8,9.35,50.88,16.59,75.75c1.98,6.79,4.87,13.32,7.89,21.46c-6.42-1.44-11.77-2.3-16.91-3.87
		c-20.51-6.25-40.46-14.15-59.07-24.7c-14.68-8.32-28.54-18.19-42.33-27.98c-10.62-7.54-21.03-15.52-30.68-24.25
		c-13.75-12.45-27.31-25.22-39.87-38.85c-12.51-13.58-24.16-28.04-35.28-42.8c-9.21-12.21-17.57-25.13-25.42-38.26
		c-6.92-11.56-13.15-23.6-18.7-35.87c-5.38-11.88-9.92-24.18-14.07-36.55c-4.56-13.6-8.95-27.34-12.1-41.31
		c-2.77-12.29-4.57-24.93-5.29-37.51c-0.89-15.39-0.82-30.9-0.02-46.3c0.66-12.62,2.77-25.19,4.66-37.72
		c1.36-9.03,2.89-18.1,5.32-26.88c3.04-11,6.54-21.94,10.8-32.52c5-12.44,10.31-24.84,16.75-36.58
		c9.39-17.12,19.38-33.96,30.07-50.3c10.06-15.38,21.09-30.15,32.22-44.79c6.97-9.17,14.77-17.72,22.44-26.33
		c15.59-17.5,31.06-34.97,44.77-54.15c14.89-20.83,26.5-43.14,34.56-67.05c4.83-14.32,6.08-29.88,8.44-44.97
		c0.81-5.2,0.13-10.63,0.13-15.96c0.61-0.32,1.22-0.65,1.83-0.97c5.25,6.12,11.05,11.86,15.65,18.44
		c14.72,21.07,23.97,44.75,28.4,69.8c2.82,15.97,3.77,32.7,2.5,48.85c-1.48,18.82-6.65,37.22-14.39,54.77
		c-6.71,15.2-13.35,30.53-18.53,46.29c-5.75,17.49-9.95,35.65-7.75,54.27c1.31,11.13,4.63,21.85,13.15,30.28
		c8.53,8.45,17.03,16.82,28.22,21.77c18.96,8.38,40.82,4.88,56.63-9.3c16.16-14.49,27.41-32.1,34.54-52.28
		c4.81-13.64,8.76-27.61,8.83-42.37c0.03-7.22,1.42-14.48,1.06-21.66c-0.86-17.08-1.87-34.19-3.83-51.18
		c-1.75-15.18-4.59-30.25-7.44-45.27c-2.95-15.58-7.13-30.94-9.6-46.58c-2.51-15.98-3.63-32.18-5.28-48.3
		c-0.9-8.8-2.25-17.61-2.33-26.43c-0.09-10.1,0.98-20.22,1.6-30.33c0.1-1.63,0.72-3.25,0.67-4.86c-0.41-13.25,1.74-26.13,4.83-38.97
		c2.18-9.08,2.95-18.52,5.46-27.49c2.75-9.78,5.95-19.61,10.43-28.7c8.4-17.03,16.84-34.2,27.17-50.07
		c8.91-13.69,19.85-26.23,31.01-38.24c12.59-13.54,26.13-26.24,39.81-38.69c13.79-12.55,28.97-23.62,42.22-36.68
		c13.12-12.94,25.09-27.16,36.63-41.57c11.34-14.16,19.41-30.43,24.41-47.88c2.9-10.14,4.89-20.71,5.78-31.22
		c1.7-20.07-0.74-40.01-5-59.62c-2.32-10.65-6.11-20.98-9.8-33.36c4.64,2.58,8.6,4.23,11.95,6.72
		c29.14,21.64,53.15,47.94,70.03,80.18c4.72,9.02,7.37,19.17,10.59,28.92c2.4,7.27,4.59,14.65,6.14,22.13
		c1.74,8.39,2.99,16.92,3.83,25.45c0.85,8.64,1.57,17.38,1.2,26.03c-0.67,15.63-2.1,31.24-3.41,46.84
		c-0.67,7.96-1.69,15.9-2.73,23.82c-0.69,5.24-1.7,10.44-2.61,15.66c-3.29,18.87-6.54,37.75-9.93,56.61
		c-3.74,20.78-5.85,41.73-4.77,62.79c0.56,10.95,3.41,21.77,4.51,32.71c1.55,15.34,8.1,28.79,15.58,41.69
		c7.3,12.59,18.28,21.89,30.42,30.05c17.47,11.76,36.9,16.34,57.22,14.79c26.42-2.01,50.37-11.76,68.37-31.81
		c11.59-12.91,20.39-28.18,25.23-45.11c3.85-13.47,7.97-27.06,9.75-40.88c1.89-14.75,1.41-29.84,1.53-44.78
		c0.16-19-3.39-37.53-7.81-55.92c-0.39-1.64-0.05-3.45-0.05-5.18c0.59-0.26,1.18-0.52,1.77-0.79c10.52,8.06,21.53,15.57,31.45,24.31
		c12.51,11.01,24.52,22.66,36.05,34.69c20.1,20.97,34.24,45.79,45.14,72.6c7.24,17.82,12.05,36.31,15.83,55.08
		c1.65,8.22,2.31,16.7,2.82,25.09c0.73,12,1.64,24.07,1.17,36.05c-0.77,19.49-2.65,38.87-5.67,58.25
		c-4.34,27.93-13.01,54.41-24.6,79.77c-8.7,19.04-19.38,37.43-31.18,54.75c-19.43,28.51-41.07,55.52-60.64,83.95
		c-12.34,17.93-22.95,36.95-29.6,58.14c-5.36,17.07-6.01,34.38-4.23,51.44c1.96,18.74,8.53,36.6,23.55,49.63
		c13.13,11.39,28.18,15.21,45.81,13.58c16.68-1.54,30.82-7.87,44.47-16.45c18.27-11.48,33.89-25.97,47.59-42.55
		c9.42-11.4,19.32-22.48,27.86-34.51c10.01-14.09,19.21-28.81,27.94-43.74c6.13-10.48,11.2-21.62,16.12-32.74
		c3.57-8.08,6.14-16.61,9.13-24.95c2.92-8.14,6.22-16.17,8.59-24.47c3.35-11.68,6.21-23.52,8.87-35.38
		c2.45-10.94,4.55-21.98,6.45-33.03c1.49-8.67,3.12-17.4,3.46-26.16c0.57-14.5,0.15-29.04,0.15-43.56c0.61-0.15,1.22-0.29,1.83-0.44
		c0.97,0.83,2.42,1.46,2.84,2.51c7.02,17.6,14.36,35.09,20.68,52.93c5.08,14.33,9.37,28.98,13.1,43.72
		c2.59,10.25,3.65,20.89,5.38,31.36c2.4,14.49,4.86,28.98,7.15,43.49c0.45,2.85,0.22,5.81,0.36,8.71
		c0.82,16.74,2.3,33.48,2.31,50.22c0.01,15.9-0.65,31.91-2.54,47.69c-2.52,21.06-5.54,42.16-10.08,62.85
		c-8.27,37.64-20.16,74.13-37.08,108.98c-12.37,25.48-25.74,50.32-41.55,73.78c-14.22,21.1-28.97,41.82-46.75,60.22
		c-12.54,12.97-23.98,27.08-37.21,39.27c-17.07,15.74-35.41,30.09-53.24,45c-4.33,3.62-8.8,7.09-14.3,11.5
		c2.71,0.38,4.07,0.91,5.28,0.68c12.17-2.28,24.3-4.78,36.47-7.03c6.02-1.12,12.09-2,18.17-2.74c8.35-1.02,16.74-1.64,25.08-2.74
		c7.66-1.01,15.27-2.45,22.91-3.65c8.27-1.3,16.55-2.54,24.82-3.81c8.07-1.24,16.12-2.55,24.2-3.71c9.31-1.34,18.61-2.99,27.98-3.67
		c8.51-0.62,17.1-0.2,25.66-0.12c18.65,0.18,36.03,4.88,52.29,14.17c16.54,9.45,30.39,21.4,39.68,38.38
		c6.92,12.64,10.48,26.23,13,40.2c3.72,20.65,3.99,41.51,3.88,62.43c-0.09,17.42-7.35,31.61-18.55,44.04
		c-10.61,11.77-22.34,22.37-38.19,30.24c5.28,1.87,9.1,3.33,13,4.59c17.34,5.58,33.1,13.96,45.31,27.64
		c5.96,6.68,9.21,15.13,10.92,24.09c1.09,5.71,3.12,11.26,4.07,16.99c1.43,8.68,2.82,17.43,3.25,26.2
		c0.55,11.24-0.12,22.54,0.19,33.8c0.5,17.96-6.05,33.93-13.7,49.53c-7.16,14.6-17.41,26.99-31,35.86
		c-15.02,9.8-31.13,17.61-48.93,21.47c-13.88,3.01-27.57,6.96-41.51,9.66c-12.23,2.36-24.71,3.37-37.02,5.33
		c-7.61,1.21-15.09,3.22-22.67,4.61c-5.82,1.07-11.71,1.81-17.58,2.55c-7.93,1-15.91,1.64-23.81,2.84
		c-8.21,1.25-16.33,3.13-24.53,4.46c-7.28,1.19-14.64,1.88-21.93,3.02c-9.05,1.42-18.05,3.24-27.12,4.53
		c-3.65,0.52-7.43,0.09-11.31,0.09c-2.31-27.7-4.63-55.49-6.98-83.57c3.84-2.88,8.24-6.17,12.63-9.47
		c9.75-7.32,9.18-17.81,8.46-28.2c-0.48-6.95-1.67-13.85-2.3-20.79c-1.73-19.06-3.43-38.12-4.94-57.2
		c-0.7-8.87-0.85-17.78-1.36-26.66c-1.21-20.82-2.34-41.65-3.79-62.46c-1.47-20.95-3.02-41.91-5.08-62.81
		c-1-10.11-2.31-20.4-5.34-30.02c-1.44-4.56-6.66-8.83-11.21-11.24c-4.04-2.14-5.86-3.72-5.99-8.47
		c-0.53-20.5-1.49-40.99-2.44-61.48c-0.14-3.02-1.11-6.01-1.73-9.18c-21.81,10.93-43.55,21.83-65.67,32.92
		c6.41,5.2,12.72,10.26,18.96,15.41c10.98,9.07,17.64,20.8,22.36,34.16c5.58,15.8,7.47,32.1,8.56,48.57
		c0.78,11.78,2.16,23.74,1.01,35.39c-1.64,16.75-9.31,31.59-21.04,43.6c-8.17,8.36-17.79,15.31-26.82,22.82
		c-1.22,1.02-2.91,1.47-4.11,2.5c-1.1,0.95-1.84,2.31-2.74,3.5c1.21,0.89,2.29,2.23,3.64,2.6c14.33,3.85,27.14,10.7,38.9,19.56
		c9.27,6.98,17.26,15.34,21.14,26.38c3.34,9.51,5.39,19.49,7.57,29.36c4.55,20.59,4.04,41.53,3.79,62.43
		c-0.22,17.88-6.15,34.02-14.7,49.54c-13.52,24.52-35.1,39.28-60.04,49.52c-12.03,4.94-24.86,8.21-37.59,11.1
		c-17.25,3.92-34.68,7.17-52.16,9.95c-19,3.02-38.16,4.95-57.2,7.76c-17.67,2.6-35.24,5.88-52.89,8.58
		c-12.76,1.95-25.59,3.41-38.37,5.15c-2.19,0.3-4.34,0.92-7.28,1.57c-0.54-5.5-1.09-10.53-1.52-15.58
		c-1.67-19.69-3.11-39.4-5.05-59.07c-0.85-8.58-0.01-11.39,7.97-15.92c7.79-4.43,12.59-15.17,9.99-23.36
		c-1.08-3.43-0.14-7.45-0.43-11.18c-1.59-20.32-3.27-40.64-4.92-60.95c-0.03-0.42-0.03-0.83-0.05-1.25
		c-0.84-17.14-1.37-34.31-2.6-51.43c-1.25-17.43-3.26-34.8-4.79-52.21c-0.35-3.94,0.15-7.94-0.17-11.88
		c-1.55-19.08-3.3-38.14-4.86-57.21c-0.29-3.52-0.18-7.09-0.08-10.64c0.33-11.7-6.93-19.21-16.52-21.29
		c-4.26-0.92-4.66-2.69-4.86-6.2c-1.11-19.37-2.31-38.74-3.77-58.08c-0.55-7.28-1.9-14.49-2.86-21.53
		c16.75-2.89,32.38-5.85,48.09-8.21c13.77-2.07,27.64-3.38,41.45-5.2c8.3-1.1,16.55-2.55,24.84-3.8c13.75-2.08,27.47-4.39,41.26-6.1
		c13.06-1.62,26.19-2.66,39.3-3.83c6.71-0.6,6.79-6.71,8.12-10.74c4-12.1,6.93-24.55,10.33-36.86c5.79-20.97,7.92-42.43,7.22-64.04
		c-0.37-11.38-2.67-22.73-4.48-34.03c-1.5-9.38-2.86-18.88-5.57-27.94c-3.27-10.95-7.47-21.67-12.01-32.18
		c-7.69-17.81-15.45-35.62-24.17-52.94c-6.32-12.55-13.87-24.53-21.5-36.36c-12.23-18.97-24.77-37.75-37.55-56.35
		c-14.58-21.22-29.68-42.09-44.35-63.25c-11.08-16-19.48-33.5-25.05-52.03c-4.42-14.73-7.14-30.18-5.21-45.65
		c1.27-10.2,3.77-20.42,7.11-30.16c4.33-12.61,8.79-25.48,15.5-36.88c8.22-13.96,18.82-26.51,28.39-39.67
		c0.46-0.64,0.92-1.28,0.88-3.55c-5.3,1.18-10.78,1.87-15.88,3.63c-20.88,7.23-40.58,17.31-57.72,30.99
		c-11.32,9.03-20.45,20.99-29.75,32.3c-12.25,14.88-19.81,32.53-27.11,50.17c-1.68,4.07-2.47,8.64-2.91,13.06
		c-1.1,11.05-2.03,22.14-2.53,33.24c-0.4,8.95-0.57,17.98,0.04,26.91c0.76,11.04,2.11,22.07,3.83,33.01
		c1.61,10.22,3.69,20.39,6.19,30.43c2.48,9.98,5.82,19.75,8.64,29.64c3.83,13.44,7.49,26.94,11.32,40.38
		c1.55,5.42,3.66,10.69,4.99,16.15c1.92,7.87,2.49,16.17,5.2,23.72c3.9,10.85,2.38,21.83,1.97,32.63
		c-0.33,8.69-2.48,17.61-5.47,25.83c-4.8,13.23-12.89,24.54-23.55,33.98c-9.39,8.3-20.19,13.16-32.23,16.53
		c-13.4,3.75-26.99,3.1-40.12,1.74c-11.16-1.15-22.32-5.9-32.66-10.78c-28.66-13.54-46.11-37.39-56.47-66.46
		c-5.9-16.55-10.05-33.74-9.59-51.66c0.11-4.29-1.27-8.62-1.07-12.9c0.47-10.06,1.52-20.09,2.21-30.14c0.11-1.63-0.46-3.3-0.72-4.95
		C1045.61,1043.47,1044.87,1043.24,1044.13,1043z M1421.02,1757.64c12.43,1.41,29.21-4.08,39.04-12.09
		c5.71-4.65,10.47-10.18,10.28-17.77c-0.42-16.72-1.4-33.43-2.51-50.12c-0.32-4.84-1.43-9.73-2.93-14.35
		c-3.12-9.63-13.67-17.63-24.15-17.57c-8.36,0.05-16.73,1.41-25.05,2.57c-1.06,0.15-2.66,2.67-2.55,3.97
		c0.97,11.63,2.57,23.22,3.41,34.86C1418.23,1710.56,1419.54,1734.01,1421.02,1757.64z M1767.34,1710.82
		c12.56-1.13,23.72-4.46,33.81-10.89c9.81-6.26,15.87-14.98,14.82-27.08c-1.36-15.71-3.11-31.39-4.96-47.05
		c-2.1-17.85-10.63-25.51-28.43-25.19c-7.5,0.13-14.98,1.41-22.81,2.19c0,6.39-0.45,12.03,0.09,17.57
		c1.39,14.45,3.55,28.82,4.75,43.28C1765.89,1679.04,1766.43,1694.5,1767.34,1710.82z M1752.57,1519.39
		c14.28-1.04,27.07-5.49,38.23-13.78c7.3-5.42,11.29-12.81,10.35-22.69c-1.34-14.16-0.93-28.52-2.94-42.56
		c-1.44-10.08-5.83-19.49-16.5-24.1c-9.22-3.98-18.57-2.93-27.82-1.09c-9.58,1.91-10.45,4.45-9.24,13.81
		c2.05,15.85,3.59,31.78,4.98,47.71C1750.84,1490.63,1751.57,1504.61,1752.57,1519.39z M1456.64,1522.98
		c-2.08-14.38-4.04-28.77-6.29-43.12c-0.95-6.05-13.3-16.83-19.44-17.01c-8.37-0.25-16.76-0.13-25.13-0.03
		c-3.82,0.04-5.65,2.21-5.36,6.02c1.21,15.79,2.57,31.57,3.65,47.37c1,14.63,1.58,29.28,2.75,43.89c0.12,1.46,3.16,3.98,4.58,3.8
		c5.83-0.7,11.78-1.64,17.27-3.64c8.74-3.19,17.32-6.69,22.94-15.17C1456.24,1538.1,1455.28,1530.65,1456.64,1522.98z"/>
	<path class="st0" d="M2199.19,1770.33c-9.63-6.72-19.08-13.5-28.78-19.89c-1.53-1.01-4.31-0.59-6.4-0.19
		c-11.18,2.14-22.22,5.19-33.48,6.58c-13.09,1.62-26.35,2.46-39.53,2.51c-13.71,0.05-26.98-3.31-40.27-6.85
		c-15.99-4.26-30.61-10.79-43.98-20.42c-14.51-10.45-24.36-24.31-30.43-40.94c-3.46-9.48-7.01-18.98-9.57-28.73
		c-1.81-6.87-2.24-14.14-2.92-21.27c-1.77-18.64-3.4-37.3-4.93-55.96c-0.36-4.35,0.17-8.78-0.17-13.14
		c-1.55-20.33-3.33-40.65-4.86-60.98c-0.37-4.98,0.23-10.04-0.16-15.01c-1.5-19.09-3.92-38.13-4.65-57.25
		c-0.6-15.51-0.19-31.19,1.43-46.62c1.76-16.8,7.37-32.73,15.77-47.55c8.48-14.97,18.88-28.22,32.46-39.04
		c18.79-14.97,39.89-25.45,62.7-32.26c11.47-3.43,23.46-5.57,35.36-6.94c14.34-1.65,28.9-3.04,43.28-2.45
		c26.23,1.08,51.49,7.39,73.26,22.66c14.44,10.14,26.02,23.34,34.12,39.52c8.38,16.73,12.88,34.21,14.45,52.78
		c1.51,17.78,4.15,35.47,6.03,53.23c0.8,7.6,0.9,15.27,1.36,22.91c1.25,20.62,2.47,41.24,3.8,61.85c0.46,7.16,1.21,14.31,2.65,21.75
		c0.77-3.16,1.72-6.29,2.27-9.48c2.51-14.49,5.12-28.97,7.29-43.51c1.3-8.73,1.8-17.58,2.79-26.37c1.5-13.24,3.14-26.46,4.65-39.7
		c0.28-2.47,0.28-4.97,0.34-7.46c0.84-37.4,2.38-74.8,2.23-112.19c-0.08-20.54-3.01-41.08-4.66-61.61
		c-0.84-10.47-1.5-20.96-2.63-31.4c-0.94-8.74-2.17-17.47-3.76-26.12c-3.13-17.05-6.35-34.1-10.02-51.04
		c-2.76-12.71-6.23-25.26-9.51-37.86c-3.42-13.15-6.7-26.35-10.58-39.36c-3.06-10.27-6.72-20.38-10.5-30.42
		c-6.29-16.72-12.22-33.62-19.48-49.92c-10.95-24.56-22.48-48.89-34.59-72.9c-8.62-17.1-18.17-33.78-28.11-50.16
		c-11.65-19.2-23.48-38.36-36.51-56.62c-14.16-19.84-29.67-38.73-44.8-57.87c-25.86-32.71-53.4-63.97-83.87-92.46
		c-20.79-19.43-42.06-38.44-64.07-56.46c-21.21-17.37-43.23-33.81-65.65-49.59c-22.8-16.05-46.26-31.21-69.92-45.98
		c-16.81-10.5-34.41-19.74-51.71-29.45c-4.18-2.35-8.56-4.33-12.85-6.48c0.08-0.6,0.16-1.19,0.24-1.79c2.09,0,4.41-0.6,6.23,0.1
		c14.19,5.41,28.43,10.74,42.37,16.74c19.18,8.26,38.39,16.54,57.08,25.83c16.41,8.16,32.2,17.58,48.1,26.72
		c12.53,7.2,25.03,14.51,37.17,22.35c15.37,9.94,30.47,20.31,45.46,30.81c11.91,8.35,23.65,16.97,35.18,25.84
		c11.06,8.51,22.23,16.98,32.51,26.38c26.4,24.15,53.14,48.01,78.2,73.51c19.54,19.88,37.18,41.7,54.88,63.3
		c13.48,16.45,26.47,33.41,38.33,51.05c11.79,17.53,22.17,36.05,32.68,54.41c10.17,17.77,20.27,35.61,29.4,53.92
		c9.36,18.75,17.76,37.99,26.12,57.21c6.38,14.68,12.58,29.48,17.89,44.57c6.53,18.57,12.12,37.48,17.98,56.29
		c3.35,10.74,6.72,21.49,9.52,32.38c2.27,8.84,3.67,17.9,5.53,26.85c1.86,8.96,4,17.86,5.7,26.84c2.42,12.82,4.61,25.69,6.77,38.56
		c1.01,6.04,1.76,12.14,2.57,18.21c2.5,18.67,5.09,37.34,7.4,56.04c0.81,6.55,0.95,13.18,1.3,19.78c0.47,8.89,1.08,17.78,1.24,26.67
		c0.53,29.13,1.58,58.28,1.05,87.39c-0.36,19.72-2.88,39.42-4.77,59.1c-1.39,14.5-2.82,29.02-5.11,43.39
		c-3.27,20.52-7,40.99-11.19,61.34c-3.6,17.45-7.71,34.83-12.37,52.04c-6.35,23.48-12.72,47.01-20.42,70.07
		c-6.16,18.44-13.84,36.42-21.7,54.23c-9.33,21.12-19.22,42.01-29.54,62.67c-8.15,16.33-16.73,32.51-26.17,48.11
		c-13.65,22.57-27.5,45.1-42.65,66.67c-17.87,25.44-36.36,50.55-56.16,74.51c-21.94,26.56-45.01,52.27-68.8,77.18
		c-18.83,19.71-39.07,38.16-59.51,56.24c-15.5,13.7-32.26,25.98-48.63,38.67c-0.79,0.61-3.96-0.35-4.76-1.48
		c-5.43-7.62-10.6-15.44-15.69-23.29c-7.42-11.44-14.67-22.99-22.06-34.45c-4.74-7.35-4.86-8.1,1.53-13.39
		c32.48-26.92,63.08-55.88,92.26-86.28c16.12-16.79,31.73-34.14,46.53-52.1c19.54-23.73,38.52-47.97,56.85-72.65
		c12.59-16.96,24.15-34.75,35.31-52.71c12.27-19.74,23.5-40.12,35.3-60.15C2193.47,1778.06,2196.28,1774.52,2199.19,1770.33z
		 M2139.35,1416.83c0.16-0.03,0.32-0.06,0.49-0.09c-1.11-9.6-1.56-19.33-3.52-28.75c-1.53-7.32-6.06-13.33-13.28-16.64
		c-8.68-3.98-17.09-2.39-26.16-0.37c-20.41,4.56-28.24,25.98-24.55,43.56c0.97,4.6,1.26,9.37,1.62,14.08
		c0.92,11.92,1.52,23.86,2.6,35.76c1.92,21.08,4.3,42.13,6.13,63.22c1.53,17.67,2.61,35.39,3.79,53.09
		c1.32,19.78,2.2,39.59,3.92,59.33c0.86,9.85,5.77,17.9,15.34,21.9c12.35,5.16,24.66,3.61,35.92-2.81
		c6.17-3.52,11.2-8.58,10.14-17.54c-1.55-13.1-1.93-26.35-2.67-39.54c-1.31-23.33-2.4-46.67-3.81-69.99
		c-1.06-17.5-2.75-34.96-3.64-52.46C2140.6,1458.67,2140.09,1437.74,2139.35,1416.83z"/>
	<path class="st0" d="M163.82,2100.94c0.82-3.75,1.7-8.96,3.14-14.01c2.12-7.48,7.67-10.93,15.11-11.91
		c18.67-2.46,37.31-5.2,56.02-7.38c11.25-1.31,22.62-1.52,33.89-2.68c13.04-1.35,26.02-3.36,39.05-4.8
		c10.03-1.11,20.11-1.64,30.15-2.67c14.49-1.49,28.96-3.24,43.45-4.8c9-0.97,18.03-1.7,27.02-2.7c14.07-1.56,28.1-3.56,42.2-4.8
		c10.72-0.94,21.54-1.51,32.28-1.16c4.12,0.13,9.39,2.23,11.95,5.27c5.09,6.03,10.82,3.33,16.29,2.89
		c9.39-0.76,18.71-2.32,28.08-3.4c14.68-1.7,29.37-3.36,44.07-4.91c9.42-0.99,18.87-1.64,28.29-2.64
		c14.28-1.52,28.54-3.32,42.82-4.79c10.45-1.08,20.95-1.66,31.4-2.73c14.69-1.5,29.35-3.39,44.04-4.85
		c11.07-1.1,22.2-1.6,33.28-2.67c15.12-1.46,30.22-3.21,45.32-4.83c0.41-0.04,0.83-0.09,1.24-0.12c12.75-0.84,25.53-1.37,38.24-2.61
		c11.8-1.15,23.5-3.21,35.28-4.59c9.8-1.15,19.65-1.8,29.46-2.86c14.06-1.51,28.09-3.25,42.15-4.77c9.4-1.02,18.84-1.77,28.25-2.73
		c15.72-1.6,31.42-3.45,47.16-4.86c12.74-1.14,25.54-1.54,38.27-2.71c14.29-1.32,28.53-3.27,42.81-4.7
		c7.6-0.76,15.26-0.85,22.87-1.53c22.53-2,45.08-3.86,67.57-6.33c18.71-2.05,37.31-5.19,56.02-7.28
		c12.49-1.39,25.12-1.52,37.64-2.71c12.85-1.22,25.64-3.14,38.47-4.59c9.61-1.08,19.25-1.87,28.86-2.86
		c15.74-1.61,31.46-3.4,47.2-4.89c11.29-1.07,22.63-1.62,33.92-2.65c16.58-1.51,33.14-3.27,49.72-4.87
		c5.54-0.54,11.11-0.82,16.65-1.37c16.15-1.6,32.29-3.37,48.45-4.86c7.61-0.7,15.3-0.63,22.9-1.44c17.54-1.87,35.04-4.09,52.56-6.13
		c7.74-0.9,15.5-2.41,23.24-2.38c9.2,0.05,13.19-5.76,16.31-12.59c5.71-12.51,10.93-25.24,16.35-37.88
		c3.45-8.05,5.59-17.2,14.02-21.69c5.64-3.01,11.9-6.25,18.05-6.61c20.11-1.2,40.3-1.1,60.46-1.55c17.45-0.39,34.9-0.69,52.34-1.29
		c19.46-0.67,38.9-1.75,58.36-2.4c8.9-0.3,16.77,5.75,18.35,14.82c2.18,12.47,3.58,25.09,5.04,37.68c1.8,15.5,3.44,31.03,4.93,46.56
		c1.06,11.08,1.94,22.19,2.55,33.3c0.37,6.69,0.73,13.49-0.08,20.1c-1.13,9.18-8.62,15.05-18.2,16.58
		c-7.4,1.19-14.69,3.12-22.07,4.49c-6.23,1.16-12.53,1.89-18.78,2.96c-14.04,2.41-28.04,5.06-42.11,7.34
		c-11.9,1.93-23.89,3.26-35.79,5.23c-10.85,1.8-21.61,4.12-32.41,6.17c-6.81,1.29-13.58,2.98-20.45,3.68
		c-11.24,1.13-19.36-4.78-25.29-13.51c-9.98-14.69-19.33-29.8-29.21-44.55c-3.07-4.58-7.46-7.51-13.56-6.98
		c-19.69,1.74-39.39,3.3-59.08,4.99c-9.22,0.79-18.44,1.64-27.65,2.57c-15.73,1.59-31.45,3.33-47.19,4.88
		c-10.04,0.99-20.12,1.62-30.16,2.65c-14.49,1.49-28.94,3.27-43.43,4.79c-9.82,1.03-19.68,1.71-29.5,2.71
		c-15.31,1.56-30.6,3.38-45.92,4.86c-11.07,1.07-22.2,1.59-33.27,2.67c-14.7,1.44-29.36,3.2-44.05,4.78
		c-8.57,0.92-17.15,1.81-25.74,2.62c-9.62,0.91-19.26,1.63-28.88,2.59c-15.72,1.57-31.42,3.35-47.15,4.88
		c-10.45,1.02-20.95,1.59-31.4,2.65c-14.48,1.46-28.92,3.36-43.41,4.75c-11.9,1.15-23.86,1.61-35.76,2.78
		c-13.46,1.32-26.88,3.18-40.33,4.64c-9.82,1.07-19.67,1.79-29.49,2.83c-14.48,1.53-28.93,3.31-43.42,4.79
		c-10.44,1.07-20.94,1.65-31.38,2.75c-13.25,1.4-26.45,3.25-39.7,4.64c-10.85,1.14-21.76,1.76-32.62,2.86
		c-14.7,1.49-29.37,3.31-44.08,4.82c-10.04,1.03-20.13,1.61-30.16,2.69c-17.96,1.93-35.88,4.15-53.84,6.09
		c-9.62,1.04-19.28,1.69-28.91,2.65c-15.94,1.58-31.87,3.37-47.81,4.89c-10.87,1.03-21.78,1.61-32.65,2.64
		c-15.74,1.5-31.45,3.36-47.2,4.84c-11.29,1.06-22.63,1.57-33.9,2.69c-14.08,1.4-28.09,3.9-42.19,4.51
		c-8.21,0.35-12.96,3.22-17.47,9.92c-3.69,5.48-10.38,7.6-17.5,8.23c-9.94,0.88-19.76,2.97-29.65,4.43
		c-7.09,1.05-14.2,2.13-21.33,2.81c-11.07,1.05-22.2,1.56-33.27,2.66c-13.66,1.37-27.27,3.28-40.94,4.66
		c-11.48,1.16-23.01,1.69-34.49,2.86c-13.05,1.32-26.04,3.16-39.08,4.54c-7.59,0.8-15.23,1.04-22.84,1.7
		c-13.52,1.18-27.02,2.59-40.54,3.7c-11.98,0.99-23.98,1.98-35.99,2.44c-9.52,0.37-18.83-9.21-19.15-18.61
		c-0.16-4.72-0.82-9.43-1.33-14.14C165.18,2111.58,164.58,2107.1,163.82,2100.94z"/>
	<path class="st0" d="M428.37,1516.15c1,15.93,1.67,30.76,2.94,45.54c1.31,15.13,3.22,30.2,4.86,45.3c0.05,0.41,0.04,0.83,0.06,1.25
		c0.84,15.89,1.5,31.79,2.59,47.66c0.52,7.53,1.87,15.01,2.91,23c-18.04,2.74-35.38,5.31-52.7,8.03
		c-17.35,2.73-34.67,5.62-52.38,8.5c-0.61-8.06-1.21-16.2-1.84-24.33c-0.8-10.26-1.9-20.5-2.38-30.77
		c-0.66-14.05-14.55-18.43-25.09-17.14c-11.16,1.36-22.22,3.42-33.38,4.76c-3.79,0.46-4.45,2.27-4.25,5.37
		c0.43,6.58,0.7,13.18,1.26,19.75c1.57,18.45,3.32,36.88,4.86,55.33c0.33,3.94,0.29,7.93,0.07,11.88c-0.22,4.05,1.33,5.94,5.43,5.42
		c9.97-1.27,19.95-2.43,29.89-3.89c12.94-1.91,25.85-4.04,38.77-6.13c8.03-1.3,16.05-2.69,24.21-4.06
		c0.67,9.48,1.26,18.32,1.93,27.14c1.49,19.51,3.07,39.01,4.36,58.53c0.07,1.1-2.04,3.12-3.41,3.4c-7.38,1.53-14.83,2.79-22.29,3.85
		c-9.93,1.41-19.92,2.42-29.85,3.83c-9.29,1.32-18.54,2.94-27.8,4.44c-0.2,0.03-0.37,0.21-0.57,0.24
		c-3.76,0.61-9.14-0.04-10.85,2.17c-1.77,2.27-0.01,7.32,0.27,11.14c1.64,22.2,3.43,44.39,4.89,66.6
		c0.49,7.51,0.19,15.07,0.23,22.61c0.02,3.96,2.22,6,5.9,5.31c12.19-2.28,24.35-4.74,36.46-7.42c10.66-2.36,18.1-11.4,17.52-22.24
		c-1.13-21.41-2.89-42.8-4.2-64.2c-0.07-1.15,1.5-3.32,2.55-3.49c9.29-1.51,18.64-2.7,27.97-3.92c10.16-1.33,20.34-2.55,30.5-3.91
		c11.76-1.57,23.51-3.31,35.28-4.82c3.07-0.39,8.12-1.33,8.92-0.01c1.73,2.87,1.44,7.03,1.73,10.69
		c1.71,21.36,3.46,42.71,4.97,64.08c1.05,14.84,1.57,29.72,2.61,44.56c1.2,17.27,2.78,34.51,3.94,51.78
		c0.09,1.31-1.68,3.78-2.89,3.98c-15.86,2.72-31.75,5.33-47.69,7.55c-14.19,1.98-28.48,3.23-42.67,5.22
		c-7.61,1.07-15.06,3.16-22.63,4.51c-6.65,1.18-13.37,1.9-20.05,2.92c-16.14,2.45-32.25,5.11-48.42,7.38
		c-13.79,1.94-27.65,3.29-41.44,5.19c-8.27,1.14-16.46,2.82-24.69,4.26c-6.03,1.05-12.04,2.31-18.1,3.1
		c-14.5,1.88-29.04,3.54-44.27,5.38c-2.34-27.83-4.68-55.78-7.06-84.14c3.16-1.72,7.18-3.29,10.47-5.81
		c10.18-7.8,10.5-18.61,8.39-30c-0.37-2.01-0.73-4.03-0.89-6.07c-1.69-22.2-3.38-44.4-4.98-66.61c-0.93-12.97-1.59-25.97-2.58-38.94
		c-1.55-20.33-3.34-40.65-4.9-60.98c-0.62-8.04-0.64-16.13-1.39-24.16c-1.45-15.53-3.07-31.06-4.94-46.55
		c-0.62-5.17-1.57-10.51-3.59-15.25c-1.52-3.59-5.18-5.74-9.8-4.95c-3.42,0.58-5.3-0.63-5.52-4.68c-0.5-9.44-1.57-18.85-2.33-28.27
		c-1.3-16.02-2.45-32.05-3.88-48.05c-0.48-5.37,1.74-6.41,6.77-6.78c10.16-0.74,20.25-2.52,30.36-3.94
		c13.78-1.93,27.55-3.94,41.33-5.88c9.33-1.31,18.67-2.49,27.99-3.87c10.51-1.55,21-3.28,31.5-4.9c14.96-2.31,29.91-4.66,44.88-6.87
		c13.36-1.97,26.75-3.76,40.12-5.67c8.92-1.27,17.83-2.62,26.75-3.89c8.69-1.24,17.4-2.36,26.09-3.63
		c8.28-1.21,16.55-2.52,24.81-3.83C422.59,1517.36,425.16,1516.78,428.37,1516.15z"/>
	<path class="st0" d="M766.71,1630.39c-40.62,6.11-80.54,12.11-121.22,18.23c-0.92-12.28-1.42-23.77-2.76-35.16
		c-1.11-9.47-2.7-18.96-5.06-28.19c-1.37-5.36-5.5-8.14-11.83-8.82c-8.16-0.87-15.65-0.35-23.31,2.63
		c-12.57,4.9-18.47,12.99-18.56,26.44c-0.06,8.6,0.14,16.79,4.67,24.85c3.8,6.76,9.15,10.92,15.6,13.9
		c18.65,8.61,37.39,17.02,56.26,25.13c19.57,8.41,39.23,16.65,59.05,24.48c16.02,6.33,30.52,14.87,42.2,27.55
		c11.18,12.14,18.54,26.29,22.82,42.51c6.61,25.03,7.38,50.39,7.32,75.97c-0.05,22.02-6.16,42.06-18.58,60.15
		c-9.31,13.56-21.98,23.37-35.55,32.47c-15.28,10.25-31.97,17.35-49.17,22.93c-13.67,4.44-28.03,7.4-42.31,9.13
		c-19.02,2.3-38.39,4.76-57.39,3.57c-32.17-2.01-62.55-11.11-85.99-35.15c-11.29-11.59-18.27-25.36-20.74-42.06
		c-3.79-25.68-6.5-51.35-7.09-77.27c-0.01-0.61,0.12-1.23,0.28-2.75c9.92-1.27,20.01-2.52,30.09-3.85c15.23-2,30.45-4.11,45.68-6.05
		c8.15-1.04,16.32-1.81,24.49-2.71c4.69-0.52,9.38-1.29,14.08-1.42c1.41-0.04,4,1.58,4.12,2.65c1.14,10.01,1.27,20.16,2.84,30.09
		c1.86,11.75,0.47,24.34,7.42,34.93c4.27,6.5,10.71,9.74,18.52,10.12c13.38,0.65,26.45-0.64,36.92-9.91
		c4.39-3.89,8.42-9.02,10.63-14.41c9.55-23.19-5.89-47.42-24.58-56.04c-23.05-10.63-46.72-19.89-70.13-29.74
		c-17.94-7.55-36.37-14.15-53.71-22.89c-24.4-12.31-43.2-30.87-54.1-56.44c-5.42-12.7-7.37-26.12-7.7-39.94
		c-0.34-14.24-3.03-28.56-2.02-42.65c1.22-16.96,5.33-33.7,15.89-47.91c4.73-6.37,8.9-13.25,14.25-19.04
		c15.97-17.28,35.74-29.09,57.86-36.49c17.47-5.84,35.32-10.7,53.27-14.89c9.31-2.17,19.18-2,28.8-2.79
		c6.38-0.52,12.77-1.24,19.16-1.2c17.06,0.12,34.27,0.89,50.43,6.49c14.11,4.89,27.08,12.41,38.79,22.19
		c11.16,9.31,17.67,21.28,22.36,34.37c2.16,6.02,2.32,12.81,3.02,19.29c1.76,16.34,3.48,32.69,4.88,49.07
		C767.14,1617.77,766.71,1623.83,766.71,1630.39z"/>
	<path class="st0" d="M790.8,1663.39c-0.6-8.34-0.99-14.82-1.56-21.3c-1.17-13.32-2.38-26.64-3.68-39.94
		c-1.57-15.95-3.35-31.88-4.85-47.84c-0.7-7.4-0.78-14.87-1.43-22.28c-1.55-17.83-3.35-35.64-4.86-53.48
		c-0.38-4.54-0.06-9.13-0.06-14.63c118.25-16.71,236.34-33.4,355.83-50.28c0.6,3.29,1.87,7.64,2.13,12.05
		c1.03,17.97,1.53,35.98,2.65,53.95c1.44,23.04,3.18,46.07,4.99,69.09c1.51,19.29,3.25,38.55,5,57.82c0.44,4.81-1.19,6.31-6.23,6.68
		c-8.71,0.64-17.34,2.53-25.99,3.98c-5.21,0.87-10.38,2.03-15.6,2.84c-12.11,1.9-24.24,3.68-36.36,5.46
		c-0.96,0.14-1.97-0.12-3.41-0.23c-0.88-12.81-1.49-25.36-2.65-37.86c-1.38-14.92-3.12-29.81-4.93-44.69
		c-0.54-4.39-1.23-8.95-2.93-12.98c-2.95-6.97-14.63-9.66-20.61-5c-1.4,1.09-2.71,3.44-2.62,5.13c0.46,8.83,1.41,17.63,2.14,26.44
		c0.17,2.07,0.07,4.16,0.23,6.23c1.63,21.58,3.38,43.14,4.88,64.73c0.42,6.02-0.3,12.13,0.19,18.14
		c1.43,17.62,3.23,35.21,4.83,52.82c0.21,2.28-0.06,4.6,0.13,6.88c1.61,19.49,3.35,38.96,4.87,58.45c0.37,4.77-0.19,9.62,0.19,14.39
		c0.6,7.56,0.66,15.37,2.77,22.54c2.01,6.82,7.65,12.93,14.7,13.6c7.1,0.67,6.97,5.19,7.32,9.08c1.27,14.19,1.74,28.44,2.73,42.66
		c0.82,11.72,1.94,23.42,3.05,36.49c-55.12,8.02-109.75,15.97-165.83,24.14c-2.32-27.92-4.6-55.49-6.89-83.03
		c3.16-2.14,6.19-4.23,9.25-6.26c5.9-3.92,9.29-9.09,8.92-16.49c-0.93-18.6-1.42-37.23-2.62-55.82c-1.34-20.75-3.27-41.47-4.93-62.2
		c-1.68-20.94-3.34-41.87-5.01-62.81c-1.67-20.94-3.32-41.88-5.02-62.82c-0.77-9.43-1.69-18.86-2.47-28.29
		c-0.36-4.38-2.67-6.61-6.99-7.12c-8.4-0.98-16.84,8.25-16.68,15.2c0.48,21.32,1.28,42.65,2.52,63.94
		c0.56,9.56,2.46,19.04,3.96,30.01C849.89,1655.03,820.23,1659.23,790.8,1663.39z"/>
	<path class="st0" d="M515.14,2147.12c22.23-3.18,44.12-6.39,66.02-9.4c5.01-0.69,9.02,0.63,13.34,4.43
		c21.19,18.69,42.48,37.33,64.7,54.76c22.51,17.67,45.68,34.61,69.39,50.62c31.72,21.42,64.5,41.18,98.89,58.17
		c25.35,12.52,50.34,25.79,75.95,37.75c15.22,7.1,31.34,12.26,47.02,18.38c9.71,3.79,19.24,8.07,29.06,11.55
		c11.22,3.98,22.65,7.42,34.04,10.9c9.69,2.97,19.42,5.83,29.2,8.46c14.89,4,29.82,7.84,44.77,11.58c12.63,3.15,25.28,6.26,38,9
		c16.14,3.48,32.37,6.55,48.55,9.82c11.77,2.38,23.48,5.21,35.33,7.08c14.16,2.23,28.42,3.88,42.68,5.36
		c18.21,1.89,36.46,3.47,54.71,4.93c5.81,0.46,11.68,0.13,17.52,0.13c17.11,0.01,34.25,0.63,51.32-0.15
		c21.82-1,43.58-3.16,65.37-4.8c11.51-0.87,23.05-1.45,34.53-2.63c10.38-1.07,20.7-2.71,31.02-4.24
		c12.33-1.82,24.67-3.56,36.93-5.77c12.44-2.24,24.83-4.78,37.15-7.58c15.46-3.52,30.99-6.9,46.2-11.34
		c20.2-5.89,40.33-12.14,60.09-19.32c21.34-7.75,42.37-16.41,63.26-25.31c28.82-12.29,57.39-25.17,86.05-37.84
		c8-3.53,15.88-7.33,23.95-10.67c1.83-0.76,4.23-0.11,6.37-0.11c0.26,0.59,0.51,1.17,0.77,1.76c-3.74,2.8-7.27,5.96-11.26,8.33
		c-19.95,11.85-39.83,23.85-60.13,35.08c-16.62,9.19-33.65,17.65-50.77,25.89c-16.87,8.12-33.85,16.07-51.17,23.16
		c-17.12,7.01-34.61,13.16-52.13,19.13c-18.05,6.16-36.2,12.14-54.55,17.3c-14.83,4.17-30.05,6.97-45.08,10.45
		c-13.81,3.2-27.52,6.92-41.42,9.63c-12.02,2.34-24.25,3.57-36.39,5.34c-8.08,1.18-16.12,2.61-24.22,3.63
		c-11.39,1.44-22.79,3.19-34.24,3.75c-25.06,1.23-50.14,2.13-75.22,2.54c-25.49,0.42-51.02,0.71-76.49-0.13
		c-19.72-0.65-39.44-2.7-59.06-4.95c-15.59-1.78-31.03-4.91-46.56-7.25c-12.31-1.86-24.71-3.16-36.99-5.21
		c-9.79-1.63-19.46-4.05-29.19-6.07c-10.37-2.15-20.81-4.03-31.12-6.43c-9.28-2.16-18.44-4.85-27.65-7.32
		c-17.26-4.62-34.66-8.79-51.75-13.97c-20.62-6.25-41.2-12.75-61.4-20.24c-19.9-7.38-39.54-15.58-58.84-24.43
		c-26.82-12.31-53.65-24.75-79.65-38.67c-21.39-11.45-41.75-24.87-62.25-37.91c-17.71-11.26-35.3-22.77-52.36-34.99
		c-19.13-13.7-37.46-28.52-56.4-42.49c-26.19-19.31-49.11-42.28-72.79-64.41c-4.18-3.91-8.23-7.96-12.19-12.1
		C515.39,2149.58,515.42,2148.13,515.14,2147.12z"/>
	<path class="st0" d="M728.31,473.57c-0.84,0.99-1.51,2.21-2.53,2.95c-15.86,11.58-31.91,22.91-47.61,34.7
		c-10.33,7.76-20.25,16.09-30.21,24.33c-12.99,10.75-25.87,21.64-38.75,32.53c-3.94,3.33-7.89,6.68-11.56,10.31
		c-18,17.77-35.91,35.63-53.84,53.47c-1.32,1.32-2.58,2.71-3.82,4.11c-19.45,21.93-39.09,43.7-58.25,65.88
		c-11,12.73-21.51,25.91-31.73,39.29c-10.3,13.48-20.35,27.19-29.78,41.28c-12.92,19.29-25.72,38.71-37.54,58.68
		c-12.04,20.35-23.08,41.31-34.09,62.26c-9.74,18.53-19.47,37.11-28.02,56.2c-10.12,22.6-19.13,45.71-28.33,68.71
		c-5.21,13.04-10.29,26.17-14.58,39.54c-4.07,12.68-6.96,25.74-10.49,38.6c-3.05,11.15-6.61,22.17-9.31,33.4
		c-3.09,12.84-5.56,25.82-8.15,38.78c-2.12,10.59-4.08,21.2-5.97,31.83c-1.47,8.25-2.9,16.51-4.03,24.8
		c-1.79,13.2-3.46,26.42-4.91,39.65c-1.1,10.03-2.37,20.1-2.54,30.17c-0.67,39.77-1.06,79.55-1.28,119.32
		c-0.07,12.02,0.64,24.05,1.24,36.06c0.23,4.58-1.34,5.94-6,6.28c-7.91,0.59-15.73,2.35-23.59,3.58c-8.06,1.27-16.13,2.51-24.2,3.75
		c-3.63,0.56-7.36,0.73-10.88,1.69c-7.25,1.98-7.92,1.6-8.08-6.1c-0.39-18.89-1.1-37.78-1.1-56.67c0-17.66,0.29-35.34,1.29-52.96
		c1.16-20.56,2.85-41.1,5.03-61.58c1.97-18.5,4.62-36.94,7.51-55.32c1.87-11.85,4.86-23.51,7.1-35.3c1.94-10.2,3.2-20.55,5.4-30.69
		c1.84-8.49,4.68-16.77,6.95-25.18c2.7-9.98,5.14-20.04,7.93-29.99c3.34-11.91,6.5-23.91,10.53-35.59
		c6.57-19.04,13.63-37.92,20.76-56.77c13.34-35.27,28.79-69.64,47.08-102.6c14.79-26.66,30.49-52.82,46.29-78.89
		c10.68-17.63,21.55-35.21,33.56-51.94c14.09-19.63,29.63-38.22,44.34-57.43c28.21-36.85,60.95-69.54,94.37-101.47
		c19.78-18.9,40.91-36.49,62.23-53.67c21.83-17.6,44.33-34.42,67.14-50.74c15.35-10.99,31.64-20.7,47.73-30.62
		c13.09-8.07,26.48-15.64,39.79-23.33c4.34-2.51,8.87-4.69,13.31-7.01C727.24,472.43,727.78,473,728.31,473.57z"/>
	<path class="st0" d="M826.25,655.42c-4.18-8.02-8.64-15.92-12.48-24.1c-3.94-8.42-8.09-16.88-10.68-25.76
		c-3.63-12.43-6.36-25.17-8.6-37.94c-1.62-9.28-2.07-18.79-2.61-28.23c-1.31-23.01,4.51-44.61,13.68-65.46
		c7.25-16.49,16.65-31.72,27.59-45.99c16.7-21.78,34.04-43.09,50.02-65.38c12.71-17.72,23.38-36.67,29.17-58.19
		c3.97-14.73,7.41-29.52,6.92-44.65c-0.39-11.92-3.3-23.75-5.31-37.09c3.51,2.42,7.34,4.08,9.81,6.92
		c10.12,11.62,20.97,22.84,29.35,35.65c8.5,13,15.84,27.19,21.05,41.79c4.88,13.67,7.38,28.45,8.96,42.96
		c1.93,17.68,0.7,35.71-5.03,52.6c-4.85,14.3-11.07,28.42-18.74,41.42c-7.94,13.45-18.18,25.56-27.75,38.01
		c-4.15,5.4-8.95,10.32-13.73,15.19c-20.12,20.44-38.37,42.54-54.36,66.22c-9.21,13.63-16.09,29-22.68,44.16
		c-5.38,12.36-8.9,25.55-12.96,38.46c-0.85,2.71-0.44,5.81-0.61,8.73C826.93,654.96,826.59,655.19,826.25,655.42z"/>
</g>
</svg>
